<?xml version="1.0" encoding="UTF-8" standalone="no"?>
<svg
   xmlns:dc="http://purl.org/dc/elements/1.1/"
   xmlns:cc="http://creativecommons.org/ns#"
   xmlns:rdf="http://www.w3.org/1999/02/22-rdf-syntax-ns#"
   xmlns:svg="http://www.w3.org/2000/svg"
   xmlns="http://www.w3.org/2000/svg"
   xmlns:sodipodi="http://sodipodi.sourceforge.net/DTD/sodipodi-0.dtd"
   xmlns:inkscape="http://www.inkscape.org/namespaces/inkscape"
   height="467.2915"
   width="569.56592"
   version="1.1"
   id="svg156"
   sodipodi:docname="amdahl-law.svg"
   inkscape:version="1.0.2 (e86c870879, 2021-01-15, custom)">
  <metadata
     id="metadata162">
    <rdf:RDF>
      <cc:Work
         rdf:about="">
        <dc:format>image/svg+xml</dc:format>
        <dc:type
           rdf:resource="http://purl.org/dc/dcmitype/StillImage" />
        <dc:title></dc:title>
      </cc:Work>
    </rdf:RDF>
  </metadata>
  <defs
     id="defs160" />
  <sodipodi:namedview
     pagecolor="#ffffff"
     bordercolor="#666666"
     borderopacity="1"
     objecttolerance="10"
     gridtolerance="10"
     guidetolerance="10"
     inkscape:pageopacity="0"
     inkscape:pageshadow="2"
     inkscape:window-width="1920"
     inkscape:window-height="1024"
     id="namedview158"
     showgrid="false"
     fit-margin-top="0"
     fit-margin-left="0"
     fit-margin-right="0"
     fit-margin-bottom="0"
     inkscape:zoom="1.1484591"
     inkscape:cx="447.14059"
     inkscape:cy="283.3605"
     inkscape:window-x="0"
     inkscape:window-y="28"
     inkscape:window-maximized="1"
     inkscape:current-layer="svg156" />
  <line
     y2="32.59375"
     x2="564.41992"
     stroke="#666666"
     stroke-dasharray="8, 2"
     y1="32.59375"
     x1="57.419922"
     id="line4" />
  <line
     y2="69.59375"
     x2="564.41992"
     stroke="#cccccc"
     y1="69.59375"
     x1="57.419922"
     id="line6" />
  <line
     y2="106.59375"
     x2="564.41992"
     stroke="#cccccc"
     y1="106.59375"
     x1="57.419922"
     id="line8" />
  <line
     y2="143.59375"
     x2="564.41992"
     stroke="#cccccc"
     y1="143.59375"
     x1="57.419922"
     id="line10" />
  <line
     y2="180.59375"
     x2="564.41992"
     stroke="#cccccc"
     y1="180.59375"
     x1="57.419922"
     id="line12" />
  <line
     y2="217.59375"
     x2="564.41992"
     stroke="#999999"
     stroke-dasharray="8, 2"
     y1="217.59375"
     x1="57.419922"
     id="line14" />
  <line
     y2="254.59375"
     x2="564.41992"
     stroke="#cccccc"
     y1="254.59375"
     x1="57.419922"
     id="line16" />
  <line
     y2="291.59375"
     x2="564.41992"
     stroke="#cccccc"
     y1="291.59375"
     x1="57.419922"
     id="line18" />
  <line
     y2="328.59375"
     x2="564.41992"
     stroke="#999999"
     stroke-dasharray="8, 2"
     y1="328.59375"
     x1="57.419922"
     id="line20" />
  <line
     y2="366.59375"
     x2="564.41992"
     stroke="#999999"
     stroke-dasharray="8, 2"
     y1="366.59375"
     x1="57.419922"
     id="line22" />
  <line
     y2="403.59375"
     x2="564.41992"
     stroke="#666666"
     y1="403.59375"
     x1="57.419922"
     id="line24" />
  <line
     y2="408.59375"
     x2="61.419922"
     stroke="#666666"
     y1="32.59375"
     x1="61.419922"
     id="line26" />
  <line
     y2="408.59375"
     x2="92.419922"
     stroke="#cccccc"
     y1="32.59375"
     x1="92.419922"
     id="line28" />
  <line
     y2="408.59375"
     x2="124.41992"
     stroke="#cccccc"
     y1="32.59375"
     x1="124.41992"
     id="line30" />
  <line
     y2="408.59375"
     x2="155.41992"
     stroke="#cccccc"
     y1="32.59375"
     x1="155.41992"
     id="line32" />
  <line
     y2="408.59375"
     x2="187.41992"
     stroke="#999999"
     y1="32.59375"
     x1="187.41992"
     id="line34" />
  <line
     y2="408.59375"
     x2="218.41992"
     stroke="#cccccc"
     y1="32.59375"
     x1="218.41992"
     id="line36" />
  <line
     y2="408.59375"
     x2="249.41992"
     stroke="#cccccc"
     y1="32.59375"
     x1="249.41992"
     id="line38" />
  <line
     y2="408.59375"
     x2="281.41992"
     stroke="#cccccc"
     y1="32.59375"
     x1="281.41992"
     id="line40" />
  <line
     y2="408.59375"
     x2="312.41992"
     stroke="#999999"
     y1="32.59375"
     x1="312.41992"
     id="line42" />
  <line
     y2="408.59375"
     x2="344.41992"
     stroke="#cccccc"
     y1="32.59375"
     x1="344.41992"
     id="line44" />
  <line
     y2="408.59375"
     x2="375.41992"
     stroke="#cccccc"
     y1="32.59375"
     x1="375.41992"
     id="line46" />
  <line
     y2="408.59375"
     x2="407.41992"
     stroke="#cccccc"
     y1="32.59375"
     x1="407.41992"
     id="line48" />
  <line
     y2="408.59375"
     x2="438.41992"
     stroke="#999999"
     y1="32.59375"
     x1="438.41992"
     id="line50" />
  <line
     y2="408.59375"
     x2="470.41992"
     stroke="#cccccc"
     y1="32.59375"
     x1="470.41992"
     id="line52" />
  <line
     y2="408.59375"
     x2="501.41992"
     stroke="#cccccc"
     y1="32.59375"
     x1="501.41992"
     id="line54" />
  <line
     y2="408.59375"
     x2="532.41992"
     stroke="#cccccc"
     y1="32.59375"
     x1="532.41992"
     id="line56" />
  <line
     y2="408.59375"
     x2="564.41992"
     stroke="#666666"
     y1="32.59375"
     x1="564.41992"
     id="line58" />
  <path
     stroke="#29aae2"
     stroke-width="2"
     d="m 61.419922,383.59375 31,-6 31.499998,-5 31.5,-3 31.5,-2 c 0,0 63,-1 377,-1"
     fill="none"
     id="path60" />
  <path
     stroke="#ed1c24"
     stroke-width="2"
     stroke-dasharray="2, 2"
     d="m 61.419922,383.59375 31,-12 31.499998,-12 31.5,-11.5 31.5,-8 31.5,-5 31.5,-3 31.5,-2 c 0,0 126,-1 283.5,-1.236"
     fill="none"
     id="path62" />
  <path
     stroke="#8d5ca6"
     stroke-width="2"
     stroke-dasharray="15, 2, 2, 2"
     d="m 61.419922,383.59375 31,-16 31.499998,-23 31.5,-30 31.5,-32 31.5,-25.48 31.5,-18 31.5,-10.5 31.5,-6 31.5,-3 31.5,-1 c 0,0 156,-1 189,-1"
     fill="none"
     id="path64" />
  <path
     stroke="#00a651"
     stroke-width="2"
     stroke-dasharray="17, 2"
     d="m 564.41992,32.59375 c -46,0 -126,1 -126,1 l -31.5,1.5 -31.5,4 -31.5,6 -31.5,13 -31.5,21.5 -31.5,37.5 -31.5,53 -31.5,61.5 -31.5,61 -31.5,46 -31.499998,28 -31.5,17"
     fill="none"
     id="path66" />
  <rect
     height="105"
     width="130"
     y="72.59375"
     x="387.41992"
     rx="5"
     ry="5"
     stroke="#cccccc"
     fill="#ffffff"
     id="rect68" />
  <line
     y2="106.59375"
     x2="449.41992"
     y1="106.59375"
     x1="414.41992"
     stroke="#29aae2"
     stroke-width="2"
     id="line70" />
  <line
     y2="124.59375"
     x2="449.41992"
     y1="124.59375"
     x1="414.41992"
     stroke="#ed1c24"
     stroke-width="2"
     stroke-dasharray="2, 2"
     id="line72" />
  <line
     y2="142.59375"
     x2="449.41992"
     y1="142.59375"
     x1="414.41992"
     stroke="#8d5ca6"
     stroke-width="2"
     stroke-dasharray="15, 2, 2, 2"
     id="line74" />
  <line
     y2="160.59375"
     x2="449.41992"
     y1="160.59375"
     x1="414.41992"
     stroke="#00a651"
     stroke-width="2"
     stroke-dasharray="17, 2"
     id="line76" />
  <g
     font-size="13px"
     font-family="'Liberation Sans'"
     font-weight="bold"
     id="g154"
     transform="translate(-15.580078,-15.40625)">
    <text
       id="text114"><tspan
         y="53"
         x="46"
         id="tspan78">20</tspan><tspan
         y="90"
         x="46"
         id="tspan80">18</tspan><tspan
         y="127"
         x="46"
         id="tspan82">16</tspan><tspan
         y="164"
         x="46"
         id="tspan84">14</tspan><tspan
         y="201"
         x="46"
         id="tspan86">12</tspan><tspan
         y="238"
         x="46"
         id="tspan88">10</tspan><tspan
         y="275"
         x="53"
         id="tspan90">8</tspan><tspan
         y="312"
         x="53"
         id="tspan92">6</tspan><tspan
         y="349"
         x="53"
         id="tspan94">4</tspan><tspan
         y="386"
         x="53"
         id="tspan96">2</tspan><tspan
         y="423"
         x="53"
         id="tspan98">0</tspan><tspan
         y="27"
         x="270"
         font-size="16px"
         id="tspan100">Amdahl's Law</tspan><tspan
         y="108"
         x="415"
         id="tspan102">Parallel portion</tspan><tspan
         y="480"
         x="256"
         id="tspan104">Number of processors</tspan><tspan
         y="126"
         x="475"
         id="tspan106">50%</tspan><tspan
         y="144"
         x="475"
         id="tspan108">75%</tspan><tspan
         y="162"
         x="475"
         id="tspan110">90%</tspan><tspan
         y="180"
         x="475"
         id="tspan112">95%</tspan></text>
    <text
       transform="rotate(-90,2.5,2.5)"
       id="text152"><tspan
         y="25"
         x="-255"
         id="tspan116">Speedup</tspan><tspan
         y="81"
         x="-434"
         id="tspan118">1</tspan><tspan
         y="113"
         x="-434"
         id="tspan120">2</tspan><tspan
         y="144"
         x="-434"
         id="tspan122">4</tspan><tspan
         y="176"
         x="-434"
         id="tspan124">8</tspan><tspan
         y="207"
         x="-441"
         id="tspan126">16</tspan><tspan
         y="239"
         x="-441"
         id="tspan128">32</tspan><tspan
         y="270"
         x="-441"
         id="tspan130">64</tspan><tspan
         y="302"
         x="-448"
         id="tspan132">128</tspan><tspan
         y="333"
         x="-448"
         id="tspan134">256</tspan><tspan
         y="364"
         x="-448"
         id="tspan136">512</tspan><tspan
         y="396"
         x="-455"
         id="tspan138">1024</tspan><tspan
         y="427"
         x="-455"
         id="tspan140">2048</tspan><tspan
         y="459"
         x="-455"
         id="tspan142">4096</tspan><tspan
         y="490"
         x="-455"
         id="tspan144">8192</tspan><tspan
         y="522"
         x="-462"
         id="tspan146">16384</tspan><tspan
         y="553"
         x="-462"
         id="tspan148">32768</tspan><tspan
         y="585"
         x="-462"
         id="tspan150">65536</tspan></text>
  </g>
</svg>
